<mxfile host="app.diagrams.net" agent="Mozilla/5.0 (Macintosh; Intel Mac OS X 10_15_7) AppleWebKit/537.36 (KHTML, like Gecko) Chrome/136.0.0.0 Safari/537.36" version="26.2.14">
  <diagram id="C5RBs43oDa-KdzZeNtuy" name="Page-1">
    <mxGraphModel dx="2208" dy="868" grid="1" gridSize="10" guides="1" tooltips="1" connect="1" arrows="1" fold="1" page="1" pageScale="1" pageWidth="827" pageHeight="1169" math="0" shadow="0">
      <root>
        <mxCell id="WIyWlLk6GJQsqaUBKTNV-0" />
        <mxCell id="WIyWlLk6GJQsqaUBKTNV-1" parent="WIyWlLk6GJQsqaUBKTNV-0" />
        <mxCell id="wjfcvk-_MFz2dwbTvUjB-2" value="Database" style="shape=cylinder3;whiteSpace=wrap;html=1;boundedLbl=1;backgroundOutline=1;size=15;" parent="WIyWlLk6GJQsqaUBKTNV-1" vertex="1">
          <mxGeometry x="450" y="200" width="60" height="80" as="geometry" />
        </mxCell>
        <mxCell id="wjfcvk-_MFz2dwbTvUjB-9" value="" style="edgeStyle=orthogonalEdgeStyle;rounded=0;orthogonalLoop=1;jettySize=auto;html=1;" parent="WIyWlLk6GJQsqaUBKTNV-1" source="wjfcvk-_MFz2dwbTvUjB-7" target="wjfcvk-_MFz2dwbTvUjB-8" edge="1">
          <mxGeometry relative="1" as="geometry">
            <Array as="points">
              <mxPoint x="-110" y="135" />
            </Array>
          </mxGeometry>
        </mxCell>
        <mxCell id="wjfcvk-_MFz2dwbTvUjB-7" value="Start" style="ellipse;whiteSpace=wrap;html=1;aspect=fixed;" parent="WIyWlLk6GJQsqaUBKTNV-1" vertex="1">
          <mxGeometry x="-130" y="165" width="50" height="50" as="geometry" />
        </mxCell>
        <mxCell id="wjfcvk-_MFz2dwbTvUjB-11" value="" style="edgeStyle=orthogonalEdgeStyle;rounded=0;orthogonalLoop=1;jettySize=auto;html=1;" parent="WIyWlLk6GJQsqaUBKTNV-1" source="wjfcvk-_MFz2dwbTvUjB-8" target="wjfcvk-_MFz2dwbTvUjB-10" edge="1">
          <mxGeometry relative="1" as="geometry" />
        </mxCell>
        <mxCell id="wjfcvk-_MFz2dwbTvUjB-13" value="" style="edgeStyle=orthogonalEdgeStyle;rounded=0;orthogonalLoop=1;jettySize=auto;html=1;" parent="WIyWlLk6GJQsqaUBKTNV-1" source="wjfcvk-_MFz2dwbTvUjB-10" target="wjfcvk-_MFz2dwbTvUjB-12" edge="1">
          <mxGeometry relative="1" as="geometry" />
        </mxCell>
        <mxCell id="wjfcvk-_MFz2dwbTvUjB-10" value="&lt;font face=&quot;Helvetica&quot; style=&quot;font-size: 12px;&quot;&gt;Extract text (&lt;/font&gt;PyMuPDF)" style="rounded=1;whiteSpace=wrap;html=1;" parent="WIyWlLk6GJQsqaUBKTNV-1" vertex="1">
          <mxGeometry x="100" y="105" width="120" height="60" as="geometry" />
        </mxCell>
        <mxCell id="_OzJwUccoTl-LyWJlWMp-4" value="" style="edgeStyle=orthogonalEdgeStyle;rounded=0;orthogonalLoop=1;jettySize=auto;html=1;" parent="WIyWlLk6GJQsqaUBKTNV-1" source="wjfcvk-_MFz2dwbTvUjB-12" target="_OzJwUccoTl-LyWJlWMp-3" edge="1">
          <mxGeometry relative="1" as="geometry" />
        </mxCell>
        <mxCell id="wjfcvk-_MFz2dwbTvUjB-12" value="Extract NER (&lt;code&gt;spaCy&lt;/code&gt;&amp;nbsp;NER model)" style="rounded=1;whiteSpace=wrap;html=1;" parent="WIyWlLk6GJQsqaUBKTNV-1" vertex="1">
          <mxGeometry x="260" y="105" width="120" height="60" as="geometry" />
        </mxCell>
        <mxCell id="wjfcvk-_MFz2dwbTvUjB-18" value="" style="edgeStyle=orthogonalEdgeStyle;rounded=0;orthogonalLoop=1;jettySize=auto;html=1;" parent="WIyWlLk6GJQsqaUBKTNV-1" source="wjfcvk-_MFz2dwbTvUjB-16" target="wjfcvk-_MFz2dwbTvUjB-17" edge="1">
          <mxGeometry relative="1" as="geometry" />
        </mxCell>
        <mxCell id="wjfcvk-_MFz2dwbTvUjB-16" value="User input query" style="rounded=1;whiteSpace=wrap;html=1;" parent="WIyWlLk6GJQsqaUBKTNV-1" vertex="1">
          <mxGeometry x="-60" y="210" width="120" height="60" as="geometry" />
        </mxCell>
        <mxCell id="wjfcvk-_MFz2dwbTvUjB-20" value="" style="edgeStyle=orthogonalEdgeStyle;rounded=0;orthogonalLoop=1;jettySize=auto;html=1;" parent="WIyWlLk6GJQsqaUBKTNV-1" source="wjfcvk-_MFz2dwbTvUjB-17" target="wjfcvk-_MFz2dwbTvUjB-19" edge="1">
          <mxGeometry relative="1" as="geometry" />
        </mxCell>
        <mxCell id="wjfcvk-_MFz2dwbTvUjB-17" value="Scrapping posts on Reddit based on query" style="whiteSpace=wrap;html=1;rounded=1;" parent="WIyWlLk6GJQsqaUBKTNV-1" vertex="1">
          <mxGeometry x="-60" y="320" width="120" height="60" as="geometry" />
        </mxCell>
        <mxCell id="_OzJwUccoTl-LyWJlWMp-5" value="" style="edgeStyle=orthogonalEdgeStyle;rounded=0;orthogonalLoop=1;jettySize=auto;html=1;" parent="WIyWlLk6GJQsqaUBKTNV-1" source="wjfcvk-_MFz2dwbTvUjB-19" target="_OzJwUccoTl-LyWJlWMp-2" edge="1">
          <mxGeometry relative="1" as="geometry" />
        </mxCell>
        <mxCell id="wjfcvk-_MFz2dwbTvUjB-19" value="Scrapping comments under the post" style="whiteSpace=wrap;html=1;rounded=1;" parent="WIyWlLk6GJQsqaUBKTNV-1" vertex="1">
          <mxGeometry x="100" y="320" width="120" height="60" as="geometry" />
        </mxCell>
        <mxCell id="_OzJwUccoTl-LyWJlWMp-15" value="" style="edgeStyle=orthogonalEdgeStyle;rounded=0;orthogonalLoop=1;jettySize=auto;html=1;" parent="WIyWlLk6GJQsqaUBKTNV-1" source="wjfcvk-_MFz2dwbTvUjB-21" target="wjfcvk-_MFz2dwbTvUjB-26" edge="1">
          <mxGeometry relative="1" as="geometry" />
        </mxCell>
        <mxCell id="wjfcvk-_MFz2dwbTvUjB-21" value="Find policies based on silimarity" style="rounded=1;whiteSpace=wrap;html=1;" parent="WIyWlLk6GJQsqaUBKTNV-1" vertex="1">
          <mxGeometry x="420" y="320" width="120" height="60" as="geometry" />
        </mxCell>
        <mxCell id="wjfcvk-_MFz2dwbTvUjB-35" value="" style="edgeStyle=orthogonalEdgeStyle;rounded=0;orthogonalLoop=1;jettySize=auto;html=1;exitX=0.5;exitY=1;exitDx=0;exitDy=0;" parent="WIyWlLk6GJQsqaUBKTNV-1" source="wjfcvk-_MFz2dwbTvUjB-19" target="wjfcvk-_MFz2dwbTvUjB-34" edge="1">
          <mxGeometry relative="1" as="geometry" />
        </mxCell>
        <mxCell id="wjfcvk-_MFz2dwbTvUjB-25" value="" style="endArrow=classic;html=1;rounded=0;" parent="WIyWlLk6GJQsqaUBKTNV-1" source="wjfcvk-_MFz2dwbTvUjB-21" edge="1">
          <mxGeometry width="50" height="50" relative="1" as="geometry">
            <mxPoint x="-40" y="430" as="sourcePoint" />
            <mxPoint x="480" y="280" as="targetPoint" />
            <Array as="points" />
          </mxGeometry>
        </mxCell>
        <mxCell id="wjfcvk-_MFz2dwbTvUjB-29" value="" style="edgeStyle=orthogonalEdgeStyle;rounded=0;orthogonalLoop=1;jettySize=auto;html=1;" parent="WIyWlLk6GJQsqaUBKTNV-1" source="wjfcvk-_MFz2dwbTvUjB-26" target="wjfcvk-_MFz2dwbTvUjB-28" edge="1">
          <mxGeometry relative="1" as="geometry" />
        </mxCell>
        <mxCell id="wjfcvk-_MFz2dwbTvUjB-26" value="Detect rumor (fine-tuned BERT)" style="whiteSpace=wrap;html=1;rounded=1;" parent="WIyWlLk6GJQsqaUBKTNV-1" vertex="1">
          <mxGeometry x="580" y="320" width="120" height="60" as="geometry" />
        </mxCell>
        <mxCell id="wjfcvk-_MFz2dwbTvUjB-33" value="" style="edgeStyle=orthogonalEdgeStyle;rounded=0;orthogonalLoop=1;jettySize=auto;html=1;" parent="WIyWlLk6GJQsqaUBKTNV-1" source="wjfcvk-_MFz2dwbTvUjB-28" target="wjfcvk-_MFz2dwbTvUjB-32" edge="1">
          <mxGeometry relative="1" as="geometry" />
        </mxCell>
        <mxCell id="wjfcvk-_MFz2dwbTvUjB-28" value="&lt;font style=&quot;font-size: 12px;&quot;&gt;Extra NER (&lt;span style=&quot;color: rgb(14, 14, 14); font-family: &amp;quot;Helvetica Neue&amp;quot;; background-color: transparent;&quot;&gt;BERT-large cased model)&lt;/span&gt;&lt;/font&gt;" style="whiteSpace=wrap;html=1;rounded=1;" parent="WIyWlLk6GJQsqaUBKTNV-1" vertex="1">
          <mxGeometry x="740" y="320" width="120" height="60" as="geometry" />
        </mxCell>
        <mxCell id="_OzJwUccoTl-LyWJlWMp-14" value="" style="edgeStyle=orthogonalEdgeStyle;rounded=0;orthogonalLoop=1;jettySize=auto;html=1;" parent="WIyWlLk6GJQsqaUBKTNV-1" source="wjfcvk-_MFz2dwbTvUjB-32" target="wjfcvk-_MFz2dwbTvUjB-36" edge="1">
          <mxGeometry relative="1" as="geometry">
            <Array as="points">
              <mxPoint x="730" y="460" />
              <mxPoint x="730" y="460" />
            </Array>
          </mxGeometry>
        </mxCell>
        <mxCell id="wjfcvk-_MFz2dwbTvUjB-32" value="Feature attrition (IntegratedGradients)" style="whiteSpace=wrap;html=1;rounded=1;" parent="WIyWlLk6GJQsqaUBKTNV-1" vertex="1">
          <mxGeometry x="740" y="430" width="120" height="60" as="geometry" />
        </mxCell>
        <mxCell id="wjfcvk-_MFz2dwbTvUjB-41" value="" style="edgeStyle=orthogonalEdgeStyle;rounded=0;orthogonalLoop=1;jettySize=auto;html=1;" parent="WIyWlLk6GJQsqaUBKTNV-1" source="wjfcvk-_MFz2dwbTvUjB-34" target="wjfcvk-_MFz2dwbTvUjB-40" edge="1">
          <mxGeometry relative="1" as="geometry" />
        </mxCell>
        <mxCell id="wjfcvk-_MFz2dwbTvUjB-34" value="&lt;font style=&quot;font-size: 12px;&quot;&gt;Sentiment analysis (&lt;span style=&quot;background-color: transparent; color: light-dark(rgb(0, 0, 0), rgb(255, 255, 255));&quot;&gt;RoBERTa)&lt;/span&gt;&lt;/font&gt;&lt;p&gt;&lt;/p&gt;" style="whiteSpace=wrap;html=1;rounded=1;" parent="WIyWlLk6GJQsqaUBKTNV-1" vertex="1">
          <mxGeometry x="100" y="430" width="120" height="60" as="geometry" />
        </mxCell>
        <mxCell id="wjfcvk-_MFz2dwbTvUjB-36" value="Display results" style="whiteSpace=wrap;html=1;rounded=1;" parent="WIyWlLk6GJQsqaUBKTNV-1" vertex="1">
          <mxGeometry x="510" y="430" width="120" height="60" as="geometry" />
        </mxCell>
        <mxCell id="wjfcvk-_MFz2dwbTvUjB-40" value="Generate emotional proportion (Pie Chart)" style="whiteSpace=wrap;html=1;rounded=1;" parent="WIyWlLk6GJQsqaUBKTNV-1" vertex="1">
          <mxGeometry x="260" y="430" width="120" height="60" as="geometry" />
        </mxCell>
        <mxCell id="wjfcvk-_MFz2dwbTvUjB-42" value="End" style="ellipse;whiteSpace=wrap;html=1;aspect=fixed;" parent="WIyWlLk6GJQsqaUBKTNV-1" vertex="1">
          <mxGeometry x="545" y="534" width="50" height="50" as="geometry" />
        </mxCell>
        <mxCell id="wjfcvk-_MFz2dwbTvUjB-44" value="" style="endArrow=classic;html=1;rounded=0;exitX=0.5;exitY=1;exitDx=0;exitDy=0;entryX=0.5;entryY=0;entryDx=0;entryDy=0;" parent="WIyWlLk6GJQsqaUBKTNV-1" source="wjfcvk-_MFz2dwbTvUjB-36" target="wjfcvk-_MFz2dwbTvUjB-42" edge="1">
          <mxGeometry width="50" height="50" relative="1" as="geometry">
            <mxPoint x="140" y="670" as="sourcePoint" />
            <mxPoint x="190" y="620" as="targetPoint" />
            <Array as="points" />
          </mxGeometry>
        </mxCell>
        <mxCell id="_OzJwUccoTl-LyWJlWMp-6" value="" style="edgeStyle=orthogonalEdgeStyle;rounded=0;orthogonalLoop=1;jettySize=auto;html=1;" parent="WIyWlLk6GJQsqaUBKTNV-1" source="_OzJwUccoTl-LyWJlWMp-2" target="wjfcvk-_MFz2dwbTvUjB-21" edge="1">
          <mxGeometry relative="1" as="geometry" />
        </mxCell>
        <mxCell id="_OzJwUccoTl-LyWJlWMp-2" value="Vectorize text (SentenceTransformer)" style="rounded=1;whiteSpace=wrap;html=1;" parent="WIyWlLk6GJQsqaUBKTNV-1" vertex="1">
          <mxGeometry x="260" y="320" width="120" height="60" as="geometry" />
        </mxCell>
        <mxCell id="_OzJwUccoTl-LyWJlWMp-7" value="" style="edgeStyle=orthogonalEdgeStyle;rounded=0;orthogonalLoop=1;jettySize=auto;html=1;" parent="WIyWlLk6GJQsqaUBKTNV-1" source="_OzJwUccoTl-LyWJlWMp-3" target="wjfcvk-_MFz2dwbTvUjB-2" edge="1">
          <mxGeometry relative="1" as="geometry" />
        </mxCell>
        <mxCell id="_OzJwUccoTl-LyWJlWMp-3" value="Vectorize text (SentenceTransformer)" style="rounded=1;whiteSpace=wrap;html=1;" parent="WIyWlLk6GJQsqaUBKTNV-1" vertex="1">
          <mxGeometry x="420" y="105" width="120" height="60" as="geometry" />
        </mxCell>
        <mxCell id="_OzJwUccoTl-LyWJlWMp-11" value="" style="endArrow=classic;html=1;rounded=0;entryX=0;entryY=0.5;entryDx=0;entryDy=0;exitX=0.5;exitY=1;exitDx=0;exitDy=0;" parent="WIyWlLk6GJQsqaUBKTNV-1" source="wjfcvk-_MFz2dwbTvUjB-7" target="wjfcvk-_MFz2dwbTvUjB-16" edge="1">
          <mxGeometry width="50" height="50" relative="1" as="geometry">
            <mxPoint x="-110" y="280" as="sourcePoint" />
            <mxPoint x="290" y="200" as="targetPoint" />
            <Array as="points">
              <mxPoint x="-105" y="240" />
            </Array>
          </mxGeometry>
        </mxCell>
        <mxCell id="_OzJwUccoTl-LyWJlWMp-12" value="" style="endArrow=classic;html=1;rounded=0;exitX=1;exitY=0.5;exitDx=0;exitDy=0;entryX=0;entryY=0.5;entryDx=0;entryDy=0;" parent="WIyWlLk6GJQsqaUBKTNV-1" source="wjfcvk-_MFz2dwbTvUjB-40" target="wjfcvk-_MFz2dwbTvUjB-36" edge="1">
          <mxGeometry width="50" height="50" relative="1" as="geometry">
            <mxPoint x="330" y="660" as="sourcePoint" />
            <mxPoint x="380" y="610" as="targetPoint" />
            <Array as="points">
              <mxPoint x="470" y="460" />
            </Array>
          </mxGeometry>
        </mxCell>
        <mxCell id="wjfcvk-_MFz2dwbTvUjB-8" value="User upload policy file" style="rounded=1;whiteSpace=wrap;html=1;" parent="WIyWlLk6GJQsqaUBKTNV-1" vertex="1">
          <mxGeometry x="-60" y="105" width="120" height="60" as="geometry" />
        </mxCell>
        <mxCell id="t96i2RaE5Ocww6uo_u8w-1" value="" style="edgeStyle=orthogonalEdgeStyle;rounded=0;orthogonalLoop=1;jettySize=auto;html=1;" edge="1" parent="WIyWlLk6GJQsqaUBKTNV-1" source="t96i2RaE5Ocww6uo_u8w-0" target="wjfcvk-_MFz2dwbTvUjB-2">
          <mxGeometry relative="1" as="geometry" />
        </mxCell>
        <mxCell id="t96i2RaE5Ocww6uo_u8w-0" value="User delete policy file" style="rounded=1;whiteSpace=wrap;html=1;" vertex="1" parent="WIyWlLk6GJQsqaUBKTNV-1">
          <mxGeometry x="260" y="210" width="120" height="60" as="geometry" />
        </mxCell>
      </root>
    </mxGraphModel>
  </diagram>
</mxfile>
